<svg xmlns="http://www.w3.org/2000/svg" viewBox="0 0 1200 330" width="1200" height="330" role="img" aria-label="languages">
<title>languages</title>
<defs>
  <linearGradient id="num" x1="0" y1="0" x2="1" y2="1">
    <stop offset="0%" stop-color="#a855f7"/><stop offset="100%" stop-color="#22d3ee"/>
  </linearGradient>
  <linearGradient id="edge" x1="0" y1="0" x2="1" y2="0">
    <stop offset="0%" stop-color="#a855f7" stop-opacity="0"/>
    <stop offset="50%" stop-color="#22d3ee" stop-opacity=".9"/>
    <stop offset="100%" stop-color="#e879f9" stop-opacity="0"/>
  </linearGradient>
  <pattern id="dots" width="22" height="22" patternUnits="userSpaceOnUse">
    <circle cx="1.5" cy="1.5" r="1.1" fill="#a855f7" opacity=".14"/>
  </pattern>
</defs>
<rect width="1200" height="330" fill="#08070c"/>
<rect width="1200" height="330" fill="url(#dots)"/>
<g font-family="ui-monospace,SFMono-Regular,Menlo,Consolas,monospace">
  <text x="60" y="52" fill="#22d3ee" font-size="13" letter-spacing="4">04 · LANGUAGES BY BYTES SHIPPED</text>
  <line x1="60" y1="66" x2="1140" y2="66" stroke="#a855f7" stroke-opacity=".22"/>
  <circle cx="250" cy="190" r="92" fill="none" stroke="#1d1630" stroke-width="34"/>
  <circle cx="250" cy="190" r="92" fill="none" stroke="#a855f7" stroke-width="34" stroke-dasharray="0 578.1" stroke-dashoffset="-0.0" transform="rotate(-90 250 190)" stroke-linecap="butt"><animate attributeName="stroke-dasharray" from="0 578.1" to="547.0 31.1" dur=".9s" begin="0.00s" fill="freeze"/></circle>
  <circle cx="250" cy="190" r="92" fill="none" stroke="#22d3ee" stroke-width="34" stroke-dasharray="0 578.1" stroke-dashoffset="-547.0" transform="rotate(-90 250 190)" stroke-linecap="butt"><animate attributeName="stroke-dasharray" from="0 578.1" to="31.1 547.0" dur=".9s" begin="0.14s" fill="freeze"/></circle>
  <text x="250" y="186" text-anchor="middle" fill="#f2e8ff" font-size="26" font-weight="bold">2</text>
  <text x="250" y="208" text-anchor="middle" fill="#6d5a8f" font-size="10" letter-spacing="1.8">LANGUAGES</text>
  <circle cx="470" cy="163.0" r="5" fill="#a855f7"/>
  <text x="490" y="168.0" fill="#cbb6e8" font-size="14">python</text>
  <text x="1140" y="168.0" text-anchor="end" fill="#6d5a8f" font-size="13">94.6%</text>
  <rect x="700" y="156.0" width="380" height="8" rx="4" fill="#2a2040"/>
  <rect x="700" y="156.0" width="0" height="8" rx="4" fill="#a855f7"><animate attributeName="width" from="0" to="359.6" dur=".9s" begin="0.00s" fill="freeze"/></rect>
  <circle cx="470" cy="207.0" r="5" fill="#22d3ee"/>
  <text x="490" y="212.0" fill="#cbb6e8" font-size="14">batchfile</text>
  <text x="1140" y="212.0" text-anchor="end" fill="#6d5a8f" font-size="13">5.4%</text>
  <rect x="700" y="200.0" width="380" height="8" rx="4" fill="#2a2040"/>
  <rect x="700" y="200.0" width="0" height="8" rx="4" fill="#22d3ee"><animate attributeName="width" from="0" to="20.4" dur=".9s" begin="0.14s" fill="freeze"/></rect>
</g>
</svg>
