<svg xmlns="http://www.w3.org/2000/svg" viewBox="0 0 1200 340" width="1200" height="340" role="img" aria-label="repositories">
<title>repositories</title>
<defs>
  <linearGradient id="num" x1="0" y1="0" x2="1" y2="1">
    <stop offset="0%" stop-color="#c084fc"/><stop offset="100%" stop-color="#22d3ee"/>
  </linearGradient>
  <linearGradient id="edge" x1="0" y1="0" x2="1" y2="0">
    <stop offset="0%" stop-color="#a855f7" stop-opacity="0"/>
    <stop offset="50%" stop-color="#22d3ee" stop-opacity=".9"/>
    <stop offset="100%" stop-color="#e879f9" stop-opacity="0"/>
  </linearGradient>
  <pattern id="mesh" width="26" height="26" patternUnits="userSpaceOnUse">
    <circle cx="1.5" cy="1.5" r="1" fill="#a855f7" opacity=".12"/>
  </pattern>
</defs>
<rect width="1200" height="340" fill="#07060b"/>
<rect width="1200" height="340" fill="url(#mesh)"/>
<g font-family="ui-monospace,SFMono-Regular,Menlo,Consolas,monospace">
  <text x="64" y="52" fill="#22d3ee" font-size="13" letter-spacing="4">04 · LATEST SIGNALS</text>
  <text x="1136" y="52" fill="#6d5a8f" font-size="12" letter-spacing="2" text-anchor="end">PUSHED MOST RECENTLY</text>
  <line x1="64" y1="66" x2="1136" y2="66" stroke="#a855f7" stroke-opacity=".22"/>
  <g>
    <rect x="64" y="96" width="336" height="200" rx="12" fill="#0d0a17" stroke="#a855f7" stroke-opacity=".28"/>
    <rect x="86" y="96" width="292" height="2" fill="url(#edge)">
      <animate attributeName="opacity" values=".25;1;.25" dur="3.6s" begin="-0.00s" repeatCount="indefinite"/>
    </rect>
    <text x="90" y="130" fill="#6d5a8f" font-size="11" letter-spacing="2">01</text>
    <text x="90" y="160" fill="#22d3ee" font-size="16" font-weight="bold">2048byNiklas</text>
    <text x="90" y="192" fill="#cbb6e8" font-size="12.5"><tspan x="90" dy="0">2048 KI</tspan></text>
    <line x1="90" y1="248" x2="374" y2="248" stroke="#a855f7" stroke-opacity=".16"/>
    <circle cx="95" cy="271" r="5" fill="#a855f7"/>
    <text x="108" y="276" fill="#6d5a8f" font-size="12">Python</text>
    <text x="250" y="276" fill="#6d5a8f" font-size="12">&#9733; 0</text>
    <text x="374" y="276" text-anchor="end" fill="#6d5a8f" font-size="11">2026-07-01</text>
  </g>
  <g>
    <rect x="428" y="96" width="336" height="200" rx="12" fill="#0d0a17" stroke="#a855f7" stroke-opacity=".28"/>
    <rect x="450" y="96" width="292" height="2" fill="url(#edge)">
      <animate attributeName="opacity" values=".25;1;.25" dur="3.6s" begin="-0.60s" repeatCount="indefinite"/>
    </rect>
    <text x="454" y="130" fill="#6d5a8f" font-size="11" letter-spacing="2">02</text>
    <text x="454" y="160" fill="#22d3ee" font-size="16" font-weight="bold">ZEUKU-Maxxing</text>
    <text x="454" y="192" fill="#cbb6e8" font-size="12.5"><tspan x="454" dy="0">No description yet.</tspan></text>
    <line x1="454" y1="248" x2="738" y2="248" stroke="#a855f7" stroke-opacity=".16"/>
    <circle cx="459" cy="271" r="5" fill="#22d3ee"/>
    <text x="472" y="276" fill="#6d5a8f" font-size="12">Python</text>
    <text x="614" y="276" fill="#6d5a8f" font-size="12">&#9733; 0</text>
    <text x="738" y="276" text-anchor="end" fill="#6d5a8f" font-size="11">2026-06-26</text>
  </g>
  <g>
    <rect x="792" y="96" width="336" height="200" rx="12" fill="#0d0a17" stroke="#a855f7" stroke-opacity=".28"/>
    <rect x="814" y="96" width="292" height="2" fill="url(#edge)">
      <animate attributeName="opacity" values=".25;1;.25" dur="3.6s" begin="-1.20s" repeatCount="indefinite"/>
    </rect>
    <text x="818" y="130" fill="#6d5a8f" font-size="11" letter-spacing="2">03</text>
    <text x="818" y="160" fill="#22d3ee" font-size="16" font-weight="bold">How-to-get-Rickrolled</text>
    <text x="818" y="192" fill="#cbb6e8" font-size="12.5"><tspan x="818" dy="0">In this Repo you will find a full</tspan><tspan x="818" dy="21">Tutorial on how to get Rickrolled on</tspan><tspan x="818" dy="21">Windows Powershell</tspan></text>
    <line x1="818" y1="248" x2="1102" y2="248" stroke="#a855f7" stroke-opacity=".16"/>
    <circle cx="823" cy="271" r="5" fill="#e879f9"/>
    <text x="836" y="276" fill="#6d5a8f" font-size="12">text</text>
    <text x="978" y="276" fill="#6d5a8f" font-size="12">&#9733; 1</text>
    <text x="1102" y="276" text-anchor="end" fill="#6d5a8f" font-size="11">2026-01-07</text>
  </g>
</g>
</svg>
